<svg width="18" height="5" viewBox="0 0 18 5" fill="none" xmlns="http://www.w3.org/2000/svg">
<path d="M9 3.67467C9.55228 3.67467 10 3.1273 10 2.45208C10 1.77686 9.55228 1.22949 9 1.22949C8.44772 1.22949 8 1.77686 8 2.45208C8 3.1273 8.44772 3.67467 9 3.67467Z" stroke="white" stroke-width="2" stroke-linecap="round" stroke-linejoin="round"/>
<path d="M16 3.67467C16.5523 3.67467 17 3.1273 17 2.45208C17 1.77686 16.5523 1.22949 16 1.22949C15.4477 1.22949 15 1.77686 15 2.45208C15 3.1273 15.4477 3.67467 16 3.67467Z" stroke="white" stroke-width="2" stroke-linecap="round" stroke-linejoin="round"/>
<path d="M2 3.67467C2.55228 3.67467 3 3.1273 3 2.45208C3 1.77686 2.55228 1.22949 2 1.22949C1.44772 1.22949 1 1.77686 1 2.45208C1 3.1273 1.44772 3.67467 2 3.67467Z" stroke="white" stroke-width="2" stroke-linecap="round" stroke-linejoin="round"/>
</svg>
